<svg xmlns="http://www.w3.org/2000/svg" viewBox="0 0 400 300" fill="none">
  <defs>
    <linearGradient id="g2bg" x1="0%" y1="0%" x2="100%" y2="100%">
      <stop offset="0%" stop-color="#faf5ee"/>
      <stop offset="100%" stop-color="#f2ece2"/>
    </linearGradient>
    <linearGradient id="g2frame" x1="0%" y1="0%" x2="100%" y2="100%">
      <stop offset="0%" stop-color="#c49a6c"/>
      <stop offset="100%" stop-color="#8B6914"/>
    </linearGradient>
  </defs>
  <rect width="400" height="300" rx="12" fill="url(#g2bg)"/>
  <!-- Framed artwork -->
  <rect x="80" y="30" width="240" height="200" rx="4" fill="url(#g2frame)"/>
  <rect x="95" y="45" width="210" height="170" rx="2" fill="#fff"/>
  <!-- Simple landscape inside frame -->
  <rect x="95" y="45" width="210" height="100" fill="#87CEEB"/>
  <ellipse cx="260" cy="100" rx="20" ry="20" fill="#FFD700" opacity="0.8"/>
  <path d="M95 145 Q150 100 200 130 Q250 110 305 145 L305 215 L95 215 Z" fill="#228B22" opacity="0.6"/>
  <path d="M95 160 Q180 125 240 150 Q280 135 305 160 L305 215 L95 215 Z" fill="#2E8B57" opacity="0.7"/>
  <!-- Mat board visible -->
  <rect x="95" y="45" width="210" height="170" rx="2" fill="none" stroke="rgba(196,154,108,0.5)" stroke-width="3"/>
  <!-- Glass shine -->
  <path d="M100 50 L130 80 L100 80 Z" fill="rgba(255,255,255,0.5)"/>
  <!-- Small frame samples below -->
  <rect x="100" y="248" width="50" height="35" rx="2" fill="#8B4513" opacity="0.7"/>
  <rect x="165" y="248" width="50" height="35" rx="2" fill="#c49a6c" opacity="0.7"/>
  <rect x="230" y="248" width="50" height="35" rx="2" fill="#2c2c2c" opacity="0.7"/>
  <!-- Label -->
  <text x="200" y="285" text-anchor="middle" font-family="sans-serif" font-size="13" fill="#0a2540" opacity="0.6">Enmarcado de cuadros</text>
</svg>
